<svg xmlns="http://www.w3.org/2000/svg" width="100" height="100" viewBox="0 0 100 100">
  <g id="_3643769-building-home-house-main-menu-start_113416" data-name="3643769-building-home-house-main-menu-start_113416" transform="translate(-1.07 -3)">
    <path id="Path_11" data-name="Path 11" d="M97.75,45.923a3.2,3.2,0,0,1-1.938-.68L50.963,10.967,6.115,45.243a3.2,3.2,0,0,1-4.42-1,3.757,3.757,0,0,1,.544-4.8L49.025,3.668a3.164,3.164,0,0,1,3.877,0L99.688,39.447a3.721,3.721,0,0,1,1.223,3.99A3.375,3.375,0,0,1,97.75,45.923Z" transform="translate(0 0.012)" fill="#ff6700"/>
    <path id="Path_12" data-name="Path 12" d="M7.578,24.468A3.578,3.578,0,0,1,4,20.89V6.578A3.578,3.578,0,0,1,7.578,3H21.89a3.578,3.578,0,1,1,0,7.156H11.156V20.89A3.578,3.578,0,0,1,7.578,24.468Z" transform="translate(7.552 0)" fill="#ff6700"/>
    <path id="Path_13" data-name="Path 13" d="M72.956,65.091H56.538a3.44,3.44,0,0,1-3.284-3.578V36.468h-19.7V61.513a3.44,3.44,0,0,1-3.284,3.578H13.851C8.41,65.091,4,60.285,4,54.357V18.578A3.44,3.44,0,0,1,7.284,15a3.44,3.44,0,0,1,3.284,3.578V54.357a3.44,3.44,0,0,0,3.284,3.578H26.985V32.89a3.44,3.44,0,0,1,3.284-3.578H56.538a3.44,3.44,0,0,1,3.284,3.578V57.935H72.956a3.44,3.44,0,0,0,3.284-3.578V18.578a3.3,3.3,0,1,1,6.567,0V54.357c0,5.928-4.41,10.734-9.851,10.734Z" transform="translate(7.552 37.909)" fill="#ff6700"/>
  </g>
</svg>
